<svg xmlns:svg="http://www.w3.org/2000/svg" xmlns="http://www.w3.org/2000/svg" version="1.1" width="145" height="75" xml:space="preserve">
  <g transform="matrix(0.24397861,0,0,-0.24397861,-0.52523724,74.823731)">
    <path d="m148.08 226.48-77.4 0-2.94-0.3-2.64-0.3-2.7-0.9-2.34-0.9-2.4-1.14-2.34-1.2-4.2-3.6-1.74-1.74-1.5-2.4-1.5-2.1-1.2-2.34-0.84-2.7-0.6-2.64-0.6-2.7 0-89.46 0.6-2.7 0.6-2.64 0.84-2.4 1.2-2.64 3-4.2 1.74-2.04 2.1-1.8 2.1-1.5 2.34-1.5 2.4-1.14 2.34-0.9 2.7-0.9 2.64-0.3 83.04 0 2.64 0.3 2.4 0.9 2.34 0.9 2.4 1.14 2.04 1.5 2.1 1.5 2.1 1.8 1.74 2.04 3 4.2 1.14 2.64 0.9 2.4 0.6 2.64 0.3 2.7 0.3 3 0 83.76-0.6 5.4-0.6 2.64-0.9 2.7-1.14 2.34-1.5 2.1-1.5 2.4-1.74 1.74-4.2 3.6-2.04 1.2-2.4 1.14-2.34 0.9-2.4 0.9-2.64 0.3-2.7 0.3" style="fill-rule:evenodd;fill:#eb5d10"/>
    <path d="m516.36 148 22.2 0-2.04 3-1.2 1.2-1.5 0.9-1.14 0.84-1.5 0.6-1.8 0.3-1.44 0.3-2.1-0.3-1.8 0-1.74-0.6-1.5-0.84-2.7-2.7-0.84-1.5-0.9-1.2zm36.48-14.22 0 0-0.3-1.8-0.6-1.5-1.5-2.4-2.94-4.14-2.1-2.1-2.04-1.44-2.4-1.5-2.4-1.2-2.34-0.9-2.7-0.6-2.64-0.3-5.94 0-2.64 0.3-2.7 0.9-2.34 0.9-2.4 1.2-2.34 1.5-2.1 1.74-2.1 2.4-1.44 1.8-1.5 2.34-1.8 4.2-0.6 2.34-0.54 2.4-0.3 2.4 0 5.04 0.6 2.94 0.54 2.7 0.9 2.4 0.9 2.34 1.5 2.1 1.74 2.34 1.8 2.1 4.14 3 1.8 1.14 2.34 0.9 2.1 0.9 2.4 0.6 2.34 0.3 2.7 0.3 2.94-0.3 2.64-0.3 2.7-0.6 2.34-0.9 2.4-1.14 2.4-1.5 2.04-1.5 2.1-1.8 2.94-3.84 0.9-2.1 0.9-1.8 0.6-1.74 0.6-1.8 0.24-2.1 0-1.74-0.24-2.1-0.3-2.1-0.9-1.44-1.2-1.5-4.14-1.5-2.4-0.3-27.24 0 0.84-2.1 1.2-1.44 1.2-1.2 2.4-1.8 1.44-0.3 1.8-0.3 3.84 0 2.4 0.6 1.74 1.2 0.9 0.6 0.9 1.2 16.92 0" style="fill-rule:evenodd;fill:#eb5d10"/>
    <path d="m502.14 168.52 0-25.86-0.3-3.24-0.3-2.7-0.3-3.84-1.5-3.6-2.04-3.54-1.5-2.1-1.8-2.1-1.8-1.44-2.04-1.5-3-1.8-2.94-1.2-3.24-0.54-5.34 0-2.1 0.24-1.74 0.3-2.1 0.6-1.8 0.9-1.74 1.2-1.8 1.2-1.8 1.8-1.74 1.44-1.8 1.8-1.5 2.1-1.14 2.64-1.2 5.34-0.6 3.3 0 30.6 15.12 0 0-31.2 0.3-1.8 0.6-0.9 0.3-1.14 0.6-1.2 1.74-1.2 1.2-1.2 1.5-0.6 4.44 0 1.2 0.6 1.44 1.2 1.8 1.2 0.6 1.2 0.3 1.14 0.6 1.5 0.3 1.8 0 30.6 15.12 0" style="fill-rule:evenodd;fill:#eb5d10"/>
    <path d="m371.34 168.52 15.12 0 0-51.72-15.12 0 0 51.72z" style="fill-rule:nonzero;fill:#eb5d10"/>
    <path d="m339.36 155.14 0 0-2.7-0.6-2.04-0.9-2.1-1.14-2.1-1.8-1.14-1.8-0.9-1.8-0.6-2.04 0-2.4 0.3-2.64 0.6-2.7 0.9-2.1 0.84-0.9 0.9-0.54 2.1-1.8 1.74-1.2 2.1-0.6 4.44 0 2.4 0.6 2.04 1.2 2.1 1.8 1.8 1.74 0.84 2.1 0.6 2.4 0.3 2.64-0.3 2.4-0.9 2.34-1.14 2.1-1.2 2.1-2.1 1.2-2.04 1.14-2.4 0.9-2.34 0.3zm27.54 41.94 0-50.82-0.3-3.3-0.3-2.94-0.3-2.4 0-2.1-1.44-4.14-0.9-1.5-1.2-1.5-2.04-3.24-2.1-2.4-2.7-2.34-2.94-1.8-3.24-1.2-3-0.9-3.54-0.6-6.54 0-2.64 0.3-2.7 0.9-2.34 0.9-2.4 1.2-2.34 1.5-2.1 1.74-2.1 2.4-2.94 3.84-1.2 2.1-1.14 2.1-0.6 2.34-1.2 4.8 0 5.34 0.6 2.94 0.9 2.7 0.84 2.4 1.5 2.64 1.5 2.4 3.54 4.74 3.84 2.4 4.2 2.04 2.04 0.6 2.4 0.6 2.04 0.3 2.4 0.3 3.24-0.3 3-0.6 3.24-1.2 3.84-1.44 0 31.2 15.12 0" style="fill-rule:evenodd;fill:#24211d"/>
    <path d="m285.96 155.14 0 0-2.64-0.6-2.7-0.9-2.34-1.14-2.1-1.8-1.2-2.1-0.9-2.04-0.54-2.1 0-1.8 0.3-2.64 0.84-2.7 1.5-2.1 1.8-1.44 0.6-1.2 0.84-0.6 2.1-1.2 2.4-0.6 4.74 0 2.34 0.9 1.2 0.6 0.9 0.6 0.9 0.9 0.84 1.44 1.2 1.8 0.9 1.8 0.3 2.1 0.3 2.34-0.3 2.4-0.6 2.64-0.6 1.2-0.9 0.9-0.84 0.9-1.2 0.9-1.5 1.2-1.8 1.14-1.74 0.9-2.1 0.3zm26.7-38.34-14.22 0 0 3.6-3.9-2.1-3.54-1.2-3.54-0.9-3.3-0.3-3.24 0-2.94 0.6-2.7 1.2-2.64 1.8-1.5 0.6-1.5 0.9-2.64 2.04-2.1 2.7-2.04 2.64-1.8 3.3-0.9 3.24-0.6 3.9-0.3 3.84 0 2.4 0.6 2.64 0.6 2.4 0.9 2.4 0.9 2.34 1.5 2.1 1.74 2.4 1.8 2.04 2.04 1.8 4.2 3 2.34 1.14 2.4 0.9 2.34 0.6 2.7 0.3 2.64 0.3 4.44-0.6 2.1-0.3 2.04-0.6 2.1-0.6 1.8-1.14 1.74-0.9 1.8-1.2 2.64-2.4 2.4-2.34 1.8-3 0.6-1.5 0.54-1.44 1.2-3 0.9-3.3 0.3-3.84 0.3-4.14 0-22.32" style="fill-rule:evenodd;fill:#24211d"/>
    <path d="m221.94 148 21.36 0-1.8 3-0.9 1.2-1.5 0.9-1.14 0.84-1.8 0.6-1.8 0.3-1.74 0.3-1.5-0.3-1.8 0-1.44-0.6-1.5-0.84-2.7-2.7-0.84-1.5-0.9-1.2zm36.48-14.22 0 0-1.5-3.3-1.2-2.4-1.8-2.34-1.74-1.8-2.1-2.1-2.04-1.44-2.4-1.5-2.1-1.2-2.34-0.9-2.7-0.6-2.34-0.3-5.64 0-2.94 0.3-2.7 0.9-2.64 0.9-2.4 1.2-2.04 1.5-2.1 1.74-1.8 2.4-1.44 1.8-1.5 2.34-2.4 4.2-0.6 2.34-0.54 2.4-0.6 2.4 0 5.04 0.6 2.94 0.54 2.7 0.9 2.4 1.2 2.34 1.5 2.1 2.04 2.34 2.1 2.1 1.8 1.5 1.74 1.5 2.1 1.14 2.34 0.9 2.1 0.9 2.64 0.6 2.4 0.3 2.64 0.3 2.7-0.3 2.64-0.3 2.4-0.6 2.64-0.9 2.4-1.14 2.1-1.5 2.04-1.5 1.8-1.8 2.94-3.84 2.4-3.9 0.6-1.74 0.6-1.8 0.54-2.1 0-1.74-0.3-2.1-0.54-2.1-0.9-1.44-1.8-1.5-1.5-0.9-1.74-0.6-2.4-0.3-27.24 0 0.54-2.1 1.2-1.44 0.9-1.2 1.2-0.9 1.5-0.9 1.74-0.3 1.5-0.3 4.14 0 1.8 0.6 2.04 1.2 2.1 1.8 16.92 0" style="fill-rule:evenodd;fill:#24211d"/>
    <path d="m66.24 144.46 0 0-1.44 1.2-1.2 0.9-1.5 0.84-1.2 0.3-1.14 0-0.9-0.6-0.3-1.14-0.3-1.5 0-27.06 0.6-1.5 0.9-0.84 1.14-0.9 32.04-26.76 18.66 0 56.94 109.68-20.46 0-55.14-80.28-26.7 27.66" style="fill-rule:evenodd;fill:#fff"/>
    <path d="m206.82 116.8-15.12 0 0 31.8-0.3 1.5-0.6 1.5-0.3 1.2-0.6 0.84-1.8 1.5-1.14 0.3-1.2 0.3-2.1 0.3-2.64-0.3-0.9-0.3-0.9-0.3-1.2-0.9-0.84-0.84-1.5-1.8-0.9-4.5 0-30.3-14.22 0 0 80.28 14.22 0 0-30.36 3.24 1.5 3 1.2 2.64 0.6 2.7 0.3 3.24-0.6 3.24-0.9 3-1.2 2.94-1.74 2.4-2.1 1.74-2.1 1.2-2.04 0.9-1.8 0.6-2.4 0.6-2.94 0.3-3.6 0.3-3.54 0-28.56" style="fill-rule:evenodd;fill:#24211d"/>
    <path d="m378.48 209.56 0 0 2.64-0.3 2.4-0.6 2.1-1.2 0.84-0.6 0.9-0.9 1.8-2.04 0.9-2.1 0.6-2.4 0.24-2.34-0.24-2.4-0.6-2.1-0.9-2.34-1.8-2.1-1.74-1.5-2.1-1.2-2.4-0.54-2.64-0.3-2.1 0.3-2.34 0.54-2.1 1.2-1.44 1.5-1.8 2.1-0.9 2.34-0.6 2.1-0.3 2.4 0.3 2.34 0.6 2.4 0.9 2.1 1.8 2.04 0.54 0.9 0.9 0.6 2.1 1.2 2.34 0.6 2.1 0.3" style="fill-rule:evenodd;fill:#eb5d10"/>
    <path d="m452.28 167.62 0-13.38-2.34 0.9-2.7 0.9-3.24 0.6-3.24 0.3-2.4-0.3-2.04-0.6-1.2-0.9-0.6-0.3 0-1.44 1.8-1.8 0.54-0.6 0.9-0.3 3-0.9 3.54-1.5 2.64-1.2 0.9-0.24 0.9-0.3 1.8-1.2 2.34-3 1.5-2.94 1.2-3.3 0.3-3.24 0-2.4-0.3-2.1-0.6-1.74-0.6-1.5-1.8-3-1.44-1.44-1.5-1.2-2.94-2.1-3.3-1.2-3.54-0.9-4.44-0.24-4.44 0.24-4.74 0.9-4.5 1.2-1.74 0.9-1.5 1.2 1.2 0.9 1.2 1.14 0.84 1.5 0.6 1.5 0.6 1.8 0.6 1.74 0.3 3.9 2.1-1.5 2.34-1.2 1.2-0.3 1.5-0.3 1.74-0.3 3.3 0 1.44 0.3 0.9 0.3 0.9 0.6 1.2 1.2 0.3 0.9 0 2.4-0.3 0.24-0.6 0.3-0.9 0.6-1.2 0.6-1.74 0.3-2.4 0.3-5.34 2.1-2.04 1.2-1.5 1.14-2.4 2.7-1.74 2.7-0.9 2.94-0.3 3.3 0 2.04 1.2 4.2 0.6 1.74 1.14 1.5 1.2 1.5 3 2.4 2.64 1.74 3.24 1.2 3.6 0.9 3.84 0.6 2.94-0.3 3.3-0.6 3.24-0.9 2.94-0.9" style="fill-rule:evenodd;fill:#eb5d10"/>
    <path d="m419.4 167.62 0-14.22-3 1.44-2.94 1.2-2.94 0.6-2.7 0.3-2.94-0.3-1.8-0.6-0.6-0.3-0.9-0.9 0-2.04 0.3-0.6 0.6-0.6 0.9-0.6 0.9-0.3 1.2-0.6 1.44-0.3 3.9-1.5 1.44-0.6 0.9-0.6 1.2-0.24 0.9-0.3 2.34-1.2 1.2-1.5 1.8-3 0.6-1.44 0.54-3.3 0.3-3.24 0-2.4-0.3-2.1-0.54-1.74-0.6-1.5-1.8-3-1.5-1.44-1.44-1.2-3-2.1-2.94-1.2-3.6-0.9-3.84-0.24-3.84 0-3.54 0.54-3.6 1.2-3.24 1.8 0 14.28 3.54-2.4 2.7-1.2 1.5-0.3 1.44-0.3 1.8-0.3 1.5 0 2.94 0.3 1.2 0.3 1.2 0.6 0.54 0.6 0.6 0.6 0.6 0.9 0 1.2-0.6 1.2-0.6 0.24-0.54 0.3-0.9 0.6-1.2 0.6-1.5 0.3-1.74 0.3-5.64 2.1-2.1 1.2-2.1 1.14-1.74 2.7-1.5 2.7-0.9 2.94-0.3 3.3 0 2.04 0.3 2.1 0.6 2.1 0.6 1.74 0.9 1.5 1.5 1.5 1.44 1.2 1.8 1.2 2.64 1.74 3.3 1.2 3.54 0.9 3.84 0.6 2.7-0.3 3.24-0.6 3.3-0.9 3.24-0.9" style="fill-rule:evenodd;fill:#eb5d10"/>
    <path d="m273.54 101.68 0-2.7-1.2 0-1.2 0.3-0.9 0.3-1.2 0.3-1.14-0.3-0.9-0.3-0.6-0.6 0-0.6 0.9-0.9 1.74 0 0.6-0.6 0.6-0.3 1.5 0 0.3-0.24 0.6-0.6 1.2-0.9 0.84-0.6 0.6-1.2-0.6-2.4-0.84-0.6-1.2-0.54-2.7-1.5-1.44-0.3-3 0-1.74 0.3-2.7 1.5 0 2.64 1.2-0.3 0.9-0.3 0.6-0.3 3.84 0 0.9 0.3 0.54 0.6 0 1.8-3.84 0-0.9 0.3-1.44 1.5-1.2 0-0.3 0.6-0.3 0.84 0 1.8 0.6 1.2 0.9 0.9 1.2 0.9 0.84 0.3 1.2 0.3 3.24 0.24 1.8-0.24 1.2-0.3 1.5-0.3" style="fill-rule:evenodd;fill:#24211d"/>
    <path d="m310.86 88.3-5.34 0 0 10.68-3.54 0 0 3.54 3.54 0 0 3 0.6 1.2 0.9 1.2 1.2 0.9 2.64 1.14 3.6 0.6 0.84 0 0-3.54-0.84 0-1.5-0.3-1.2-0.6-0.6-0.6-0.3-0.6 0-2.4 4.44 0 0-3.54-4.44 0 0-10.68" style="fill-rule:evenodd;fill:#24211d"/>
    <path d="m289.5 102.52 0 0 2.1-0.24 1.8-0.6 2.04-0.9 2.1-0.9 1.2-0.9 0.84-1.2 0.3-1.2 0.3-1.14 0-2.4-0.3-0.6-0.54-0.6-2.4-2.1-0.9-0.54-1.2 0-2.64-1.5-1.5-0.3-2.94 0-1.8 0.3-2.64 1.5-1.2 0-0.9 0.54-0.9 0.9-0.6 1.2-1.14 1.2-0.6 1.2 0 1.2 0.3 1.14 0.6 1.5 0.84 1.2 1.8 1.5 1.5 0.6 1.74 0.6 2.1 0.3 2.64 0.24zm0-3.54 0 0-1.44-0.3-1.2-0.3-1.8-1.2-0.6-0.3-0.54-0.3-0.6-0.54 0-1.5 0.6-0.9 0.84-1.2 1.2-0.6 0.6-0.3 1.8-0.6 2.04 0 0.9 0.3 1.8 1.5 0.6 0.3 0.6 0.6 0.24 0.9 0.3 0.9-0.3 0.6-0.24 0.54-0.9 0.6-1.2 0.9-0.6 0.3-0.9 0.3-1.2 0.3" style="fill-rule:evenodd;fill:#24211d"/>
    <path d="m320.64 98.98-3.54 0 0 3.54 3.54 0 0 4.5 6.24 0 0-4.5 4.44 0 0-3.54-4.44 0 0-3.54-0.3-0.9-0.3-0.6-0.3-0.3 0.6-0.3 0.3-0.3 0-0.3 0.6-0.6 0.9-0.3 2.04 0 0-3.54-3.54 0-2.04 0.6-1.8 1.14-1.5 1.8-0.6 0-0.3 0.3 0 6.84" style="fill-rule:evenodd;fill:#24211d"/>
    <path d="m542.16 101.68 0-2.7-1.2 0-1.2 0.3-0.9 0.3-1.14 0.3-1.2-0.3-0.9-0.3-0.6-0.6 0-1.2 0.3-0.3 2.4 0 0.6-0.6 0.54-0.3 1.5 0 0.3-0.24 0.6-0.6 1.2-0.9 0.9-0.6 0.24-0.6 0.3-0.6-0.3-1.2-0.24-1.2-0.9-0.6-1.2-0.54-2.7-1.5-1.44-0.3-3 0-1.74 0.3-2.7 1.5 0 2.64 1.2-0.3 0.9-0.3 0.6-0.3 3.84 0 0.9 0.3 0.6 0.6 0 1.8-3.9 0-0.84 0.3-1.5 1.5-1.2 0-0.9 0.6-0.6 0.84 0 1.2 0.9 1.8 0.9 0.9 1.8 0.9 0.9 0.3 0.84 0.3 2.7 0.24 2.64-0.24 1.2-0.3 1.5-0.3" style="fill-rule:evenodd;fill:#24211d"/>
    <path d="m360.66 102.52-3.54-11.58 0-0.9-0.3-0.54-0.3-0.3-0.3 0-0.6-0.6-0.84-0.3-4.74 0-0.6 0.6-0.3 0.6 0 1.44-1.8 6.24-1.8-6.24-0.3-0.9-0.24-0.54-0.9-0.9-0.9-0.3-4.14 0-0.9 0.3-0.6 0.6-0.6 0.3-0.3 0.54 0 0.9-3.54 11.58 5.34 0 2.64-9.78 1.8 6.24 0.9 1.5 0.9 1.2 0 0.3 0.54 0.3 2.1 0.24 1.2-0.24 0.9-0.3 0.6-0.3 0-0.9 0.84 0 0-1.8 1.8-6.24 2.64 9.78 5.34 0" style="fill-rule:evenodd;fill:#24211d"/>
    <path d="m384.72 88.3-5.34 0 0 0.9-1.5-0.6-1.2-0.3-5.94 0-0.84 0.3-1.2 0.6-1.2 0-0.9 0.3-2.64 2.64-0.3 0.9-0.3 1.2 0 2.34 0.6 1.5 0.9 1.2 1.14 1.5 3.9 1.2 2.04 0.3 2.1 0.24 1.74-0.24 1.8-0.3 2.7-1.2 2.04-1.5 1.5-1.2 0.6-0.9 0.3-0.9 0-7.98zm-10.68 10.68 0 0-1.2-0.3-1.2-0.3-2.04-1.2-0.6-0.6-0.3-0.54 0-1.5 0.6-0.9 0.6-0.6 0.6-0.3 1.74-1.5 0.9-0.3 2.1 0 0.84 0.3 2.7 2.7 0.3 0.6 0.3 0.9-0.3 0.6-0.3 0.54-1.2 1.5-1.8 0.3-1.74 0.6" style="fill-rule:evenodd;fill:#24211d"/>
    <path d="m551.94 92.74 0 0 1.2-0.3 0.84-0.3 0.6-0.3 0.9-1.8-0.3-0.54-0.3-0.3-0.3-0.6 0-0.3-0.6-0.3-0.84-0.3-0.6-0.3-1.8 0-0.9 0.3-0.6 0.6-1.14 0.9-0.6 0.3 0 1.14 0.6 0.6 0.54 0.3 0.6 0.3 0 0.3 0.6 0.3 2.1 0.3" style="fill-rule:evenodd;fill:#24211d"/>
    <path d="m507.48 110.56 6.18 0 0-22.26-6.18 0 0 22.26zm18.66-8.04-7.14-7.08 8.04-7.14-7.14 0-5.04 5.04-0.3 0.6 0 0.6-0.9 0 0 1.2 0.6 0.54 0.6 0.6 0.6 1.2 4.44 4.44 6.24 0" style="fill-rule:evenodd;fill:#24211d"/>
    <path d="m422.04 92.74 0 0-0.84-1.8-0.9-0.9-2.1-1.14-2.04-0.6-6.54 0-2.1 0.3-1.74 0.6-1.5 0.84-1.2 1.2-0.9 1.5-0.6 1.2 0 1.5 0.3 1.14 0.6 1.5 0.9 1.2 1.8 1.5 1.44 0.6 1.8 0.6 1.8 0.3 2.04 0.24 2.1-0.24 1.8-0.6 2.04-0.9 2.1-0.9 1.14-0.9 0.9-0.9 0.3-1.2 0.3-0.6-0.3-0.84-0.3-0.6-0.6-0.3-0.54 0-0.6-0.6-0.9-0.3-12.78 0 0.9-1.2 0.9-0.9 1.2-0.6 2.64 0 1.5 0.3 0.9 0.6 0.9 0.9 6.18 0zm-15.12 3.54 9.78 0-0.54 0.9-0.9 0.9-1.2 0.6-1.8 0.3-1.74-0.3-1.8-0.6-0.6-0.3-0.3-0.3-0.9-1.2" style="fill-rule:evenodd;fill:#24211d"/>
    <path d="m395.4 88.3-5.34 0 0 10.68 1.44 1.2 2.1 1.2 2.4 0.9 2.94 0.24 0.9 0 0-3.54-0.9 0-1.8-0.3-0.6-0.3-0.3-0.3-0.54-0.3-0.3-0.3 0-9.18" style="fill-rule:evenodd;fill:#24211d"/>
    <path d="m465.66 102.52-3.54-11.58 0-0.9-0.9 0 0-0.84-0.6-0.6-0.9-0.3-4.74 0-0.6 0.6-0.3 0.6-0.3 0.54-0.6 0.9-1.74 6.24-0.9-6.24-0.6-0.9-0.3-0.54 0-0.3-0.9-0.6-0.9-0.3-3.84 0-0.9 0.3-0.6 0.6-0.6 0.3-0.24 0.54 0 0.9-3.6 11.58 5.34 0 2.7-9.78 1.74 6.24 0 0.9 0.9 1.8 0.6 0.3 0.9 0.3 2.04 0.24 1.2-0.24 0.9-0.3 0.6-0.3 0-0.9 0.9-1.8 1.74-6.24 2.7 9.78 5.34 0" style="fill-rule:evenodd;fill:#24211d"/>
    <path d="m478.98 102.52 0 0 2.4-0.24 2.34-0.6 1.8-0.9 1.5-0.9 1.14-0.9 1.2-1.2 0.9-1.2 0.3-1.14-0.6-2.4-1.2-1.2-0.9-1.2-0.84-0.9-0.9-0.54-0.9 0-3.24-1.5-1.5-0.3-3 0-1.74 0.3-3 1.5-1.14 0-0.9 0.54-0.9 0.9-0.6 1.2-1.2 1.2-0.6 1.2 0 1.2 0.3 1.14 0.9 1.5 2.4 2.7 3.84 1.2 2.1 0.3 2.04 0.24zm0-3.54 0 0-1.5-0.3-1.14-0.3-1.8-1.2-0.6-0.3-0.3-0.3 0-2.04 1.8-2.7 1.8-0.6 1.74-0.3 1.2 0 1.5 0.3 0.84 0.6 0.9 0.9 0.6 0.3 0.3 0.6 0 1.8-0.3 0.6-0.3 0.54-1.2 1.5-0.84 0.3-0.9 0.3-1.8 0.3" style="fill-rule:evenodd;fill:#24211d"/>
    <path d="m499.44 88.3-5.34 0 0 10.08 0.3 0.3 0.6 0.3 0.3 0.6 0.9 0.6 1.74 1.2 2.4 0.9 2.64 0.24 0.9 0 0-3.54-0.9 0-1.44-0.3-1.2-0.6-0.6-0.6-0.3-0.6 0-8.58" style="fill-rule:evenodd;fill:#24211d"/>
  </g>
</svg>