<svg xmlns="http://www.w3.org/2000/svg" viewBox="0 0 1004 1286">
  <g fill="none" fill-rule="evenodd" stroke="#FFF" stroke-width="2">
    <g id="HH" class="state" fill="#FD7542">
      <path d="M502.4 195l55.4 32v64l-55.4 32-55.5-32v-64z"/>
    </g>
    <g id="HB" class="state" fill="#F46F30">
      <path d="M336 291l55.4 32v64L336 419l-55.5-32v-64z"/>
    </g>
    <g id="BE" class="state" fill="#FA7841">
      <path d="M835 387l55.4 32v64L835 515l-55.5-32v-64z"/>
    </g>
    <g id="BT" class="state" fill="#4990E2">
      <path d="M835 387l55.4 32-111 64v-64z"/>
    </g>
    <g id="BB" class="state" fill="#F8BBD0">
      <path d="M779.5 483l55.4 32v64l-55.7 32-55.4-32v-64z"/>
      <path d="M890.4 483l55.4 32v64l-55.4 32-55.5-32v-64z"/>
      <path d="M724 387l55.4 32v64L724 515l-55.5-32v-64z"/>
      <path d="M946 387l55.4 32v64L946 515l-55.5-32v-64z"/>
      <path d="M779.5 291l55.4 32v64l-55.7 32-55.4-32v-64z"/>
      <path d="M890.4 291l55.4 32v64l-55.4 32-55.5-32v-64z"/>
      <path d="M557.5 291l55.4 32v64l-55.7 32-55.4-32v-64z"/>
      <path d="M668.4 291l55.4 32v64l-55.4 32-55.5-32v-64z"/>
    </g>
    <g id="MV" class="state" fill="#80CBC4">
      <path d="M835 195l55.4 32v64L835 323l-55.5-32v-64zm-222 0l55.4 32v64L613 323l-55.5-32v-64z"/>
      <path d="M724 195l55.4 32v64L724 323l-55.5-32v-64z"/>
      <path d="M779.5 99l55.4 32v64l-55.7 32-55.4-32v-64z"/>
      <path d="M668.4 99l55.4 32v64l-55.4 32-55.5-32v-64z"/>
    </g>
    <g id="SH" class="state" fill="#C5E1A5">
      <path d="M336 99l55.4 32v64L336 227l-55.5-32v-64z"/>
      <path d="M447 99l55.4 32v64L447 227l-55.5-32v-64z"/>
      <path d="M557.5 99l55.4 32v64l-55.7 32-55.4-32v-64z"/>
      <path d="M391 3l55.5 32v64L391 131l-55.4-32V35z"/>
    </g>
    <g id="NW" class="state" fill="#81D4FA">
      <path d="M169.5 579l55.4 32v64l-55.7 32-55.4-32v-64z"/>
      <path d="M280.4 579l55.4 32v64l-55.4 32-55.5-32v-64z"/>
      <path d="M225 483l55.4 32v64L225 611l-55.5-32v-64z"/>
      <path d="M58.4 579l55.4 32v64l-55.4 32L3 675v-64z"/>
      <path d="M114 483l55.4 32v64L114 611l-55.5-32v-64z"/>
      <path d="M336 483l55.4 32v64L336 611l-55.5-32v-64z"/>
    </g>
    <g id="HE" class="state" fill="#B0BEC5">
      <path d="M280.4 771l55.4 32v64l-55.4 32-55.5-32v-64z"/>
      <path d="M336 675l55.4 32v64L336 803l-55.5-32v-64z"/>
      <path d="M447 675l55.4 32v64L447 803l-55.5-32v-64z"/>
      <path d="M391.5 579l55.4 32v64l-55.7 32-55.4-32v-64z"/>
    </g>
    <g id="NI" class="state" fill="#FFD600">
      <path d="M169.5 195l55.4 32v64l-55.7 32-55.4-32v-64z"/>
      <path d="M280.4 195l55.4 32v64l-55.4 32-55.5-32v-64z"/>
      <path d="M391.5 195l55.4 32v64l-55.7 32-55.4-32v-64zm-222 192l55.4 32v64l-55.7 32-55.4-32v-64z"/>
      <path d="M280.4 387l55.4 32v64l-55.4 32-55.5-32v-64z"/>
      <path d="M225 291l55.4 32v64L225 419l-55.5-32v-64z"/>
      <path d="M391.5 387l55.4 32v64l-55.7 32-55.4-32v-64z"/>
      <path d="M502.4 387l55.4 32v64l-55.4 32-55.5-32v-64z"/>
      <path d="M447 291l55.4 32v64L447 419l-55.5-32v-64zm0 192l55.4 32v64L447 611l-55.5-32v-64z"/>
    </g>
    <g id="RP" class="state" fill="#FFD54F">
      <path d="M225 867l55.4 32v64L225 995l-55.5-32v-64z"/>
      <path d="M169.5 771l55.4 32v64l-55.7 32-55.4-32v-64z"/>
      <path d="M225 675l55.4 32v64L225 803l-55.5-32v-64z"/>
      <path d="M58.4 771l55.4 32v64l-55.4 32L3 867v-64z"/>
      <path d="M114 675l55.4 32v64L114 803l-55.5-32v-64z"/>
    </g>
    <g id="SL" class="state" fill="#CE93D8">
      <path d="M114 867l55.4 32v64L114 995l-55.5-32v-64z"/>
    </g>
    <g id="BW" class="state" fill="#FFB74D">
      <path d="M280.4 963l55.4 32v64l-55.4 32-55.5-32v-64z"/>
      <path d="M336 867l55.4 32v64L336 995l-55.5-32v-64z"/>
      <path d="M391.5 963l55.4 32v64l-55.7 32-55.4-32v-64z"/>
      <path d="M502.4 963l55.4 32v64l-55.4 32-55.5-32v-64z"/>
      <path d="M447 867l55.4 32v64L447 995l-55.5-32v-64z"/>
      <path d="M280.4 1155l55.4 32v64l-55.4 32-55.5-32v-64z"/>
      <path d="M225 1059l55.4 32v64l-55.5 32-55.7-32v-64z"/>
      <path d="M336 1059l55.4 32v64l-55.5 32-55.7-32v-64z"/>
      <path d="M391.5 1155l55.4 32v64l-55.7 32-55.4-32v-64z"/>
      <path d="M447 1059l55.4 32v64l-55.5 32-55.7-32v-64z"/>
    </g>
    <g id="BY" class="state" fill="#4FC3F7">
      <path d="M391.5 771l55.4 32v64l-55.7 32-55.4-32v-64z"/>
      <path d="M502.4 771l55.4 32v64l-55.4 32-55.5-32v-64z"/>
      <path d="M779.5 1059l55.4 32v64l-55.7 32-55.4-32v-64z"/>
      <path d="M835 963l55.4 32v64l-55.5 32-55.7-32v-64z"/>
      <path d="M557.5 1059l55.4 32v64l-55.7 32-55.4-32v-64z"/>
      <path d="M668.4 1059l55.4 32v64l-55.4 32-55.5-32v-64z"/>
      <path d="M613 963l55.4 32v64l-55.5 32-55.7-32v-64z"/>
      <path d="M724 963l55.4 32v64l-55.5 32-55.7-32v-64z"/>
      <path d="M502.4 1155l55.4 32v64l-55.4 32-55.5-32v-64z"/>
      <path d="M613.2 1155l55.4 32v64l-55.4 32-55.4-32v-64z"/>
      <path d="M724 1155l55.5 32v64l-55.4 32-55.2-32v-64z"/>
      <path d="M779.5 867l55.4 32v64l-55.7 32-55.4-32v-64zm-222 0l55.4 32v64l-55.7 32-55.4-32v-64z"/>
      <path d="M668.4 867l55.4 32v64l-55.4 32-55.5-32v-64z"/>
      <path d="M613 771l55.4 32v64L613 899l-55.5-32v-64z"/>
      <path d="M724 771l55.4 32v64L724 899l-55.5-32v-64z"/>
    </g>
    <g id="ST" class="state" fill="#6CCBE1">
      <path d="M557.5 483l55.4 32v64l-55.7 32-55.4-32v-64z"/>
      <path d="M668.4 483l55.4 32v64l-55.4 32-55.5-32v-64z"/>
      <path d="M613 387l55.4 32v64L613 515l-55.5-32v-64zm0 192l55.4 32v64L613 707l-55.5-32v-64z"/>
    </g>
    <g id="TH" class="state" fill="#CE93D8">
      <path d="M502.4 579l55.4 32v64l-55.4 32-55.5-32v-64z"/>
      <path d="M557.5 675l55.4 32v64l-55.7 32-55.4-32v-64z"/>
      <path d="M668.4 675l55.4 32v64l-55.4 32-55.5-32v-64z"/>
      <path d="M724 579l55.4 32v64L724 707l-55.5-32v-64z"/>
    </g>
    <g id="SN" class="state" fill="#A1887F">
      <path d="M779.5 675l55.4 32v64l-55.7 32-55.4-32v-64z"/>
      <path d="M835 579l55.4 32v64L835 707l-55.5-32v-64z"/>
      <path d="M890.5 675l55.4 32v64l-55.7 32-55.4-32v-64z"/>
      <path d="M946 579l55.4 32v64L946 707l-55.5-32v-64z"/>
    </g>
  </g>
</svg>
