<?xml version="1.0" encoding="UTF-8" standalone="no"?>
<svg xmlns:svg="http://www.w3.org/2000/svg" xmlns="http://www.w3.org/2000/svg" version="1.1" width="96" height="96" viewBox="0 0 96 96" xml:space="preserve"><path d="M80 12H16C9.4 12 4 17.4 4 24v48c0 6.6 5.4 12 12 12h64c6.6 0 12-5.4 12-12V24C92 17.4 86.6 12 80 12zm0 8c0.5 0 0.9 0.1 1.3 0.2L48 46.9 14.7 20.2C15.1 20.1 15.5 20 16 20h64zm0 56H16c-2.2 0-4-1.8-4-4V28.3L45.5 55.1C46.2 55.7 47.1 56 48 56c0.9 0 1.8-0.3 2.5-0.9L84 28.3V72c0 2.2-1.8 4-4 4z" fill="#eea236"/></svg>