<?xml version="1.0" encoding="UTF-8" standalone="no"?>
<svg xmlns:svg="http://www.w3.org/2000/svg" xmlns="http://www.w3.org/2000/svg" version="1.1" width="96" height="96" viewBox="0 0 96 96" xml:space="preserve"><path d="M53.7 48 78.8 22.8c1.6-1.6 1.6-4.1 0-5.7-1.6-1.6-4.1-1.6-5.7 0L48 42.3 22.8 17.2c-1.6-1.6-4.1-1.6-5.7 0-1.6 1.6-1.6 4.1 0 5.7L42.3 48 17.2 73.2c-1.6 1.6-1.6 4.1 0 5.7C18 79.6 19 80 20 80c1 0 2-0.4 2.8-1.2L48 53.7 73.2 78.8C74 79.6 75 80 76 80c1 0 2-0.4 2.8-1.2 1.6-1.6 1.6-4.1 0-5.7L53.7 48z" fill="#d43f3a"/></svg>