<?xml version="1.0" encoding="UTF-8" standalone="no"?>
<svg xmlns="http://www.w3.org/2000/svg" version="1.1" width="90" height="11.683682" viewBox="0 0 90 11.683682">
  <g transform="matrix(0.63559322,0,0,0.63559322,0,-3.1779661)" style="fill:none;stroke:none">
    <path d="m 7.4,19.8 -3.6,-5.1 -2,1.9 0,3.2 -1.8,0 0,-14.6 1.8,0 0,9.6 5.3,-5.4 2,0 -4.2,4.3 4.4,6.1 -1.9,0 z m 3.4,-14.6 1.7,0 0,11.9 c 0,0.4 0.1,0.7 0.3,0.9 0.2,0.2 0.5,0.3 0.9,0.3 0.1,0 0.3,0 0.5,0 0.2,-0.1 0.4,-0.1 0.6,-0.2 l 0.3,1.4 c -0.3,0.1 -0.7,0.2 -1.1,0.3 -0.4,0.1 -0.7,0.1 -1,0.1 -0.7,0 -1.3,-0.2 -1.6,-0.5 -0.4,-0.4 -0.6,-1 -0.6,-1.7 l 0,-12.5 z M 21,20 c -0.8,0 -1.5,-0.1 -2.2,-0.4 -0.6,-0.3 -1.2,-0.7 -1.7,-1.2 -0.4,-0.5 -0.8,-1.1 -1,-1.7 -0.3,-0.7 -0.4,-1.4 -0.4,-2.1 0,-0.8 0.1,-1.4 0.4,-2.1 0.2,-0.7 0.6,-1.2 1.1,-1.7 0.4,-0.5 1,-0.9 1.6,-1.2 0.7,-0.3 1.4,-0.4 2.2,-0.4 0.8,0 1.5,0.1 2.2,0.4 0.6,0.3 1.1,0.7 1.6,1.2 0.5,0.5 0.8,1 1.1,1.7 0.2,0.6 0.3,1.3 0.3,2 0,0.1 0,0.3 0,0.4 0,0.1 0,0.2 0,0.3 l -8.7,0 c 0.1,0.5 0.2,1 0.4,1.4 0.2,0.4 0.4,0.8 0.8,1.1 0.3,0.3 0.6,0.5 1.1,0.7 0.4,0.2 0.8,0.3 1.2,0.3 0.4,0 0.7,-0.1 1,-0.1 0.3,-0.1 0.6,-0.3 0.8,-0.4 0.3,-0.1 0.5,-0.3 0.8,-0.5 0.2,-0.3 0.3,-0.5 0.4,-0.8 l 1.5,0.5 c -0.1,0.3 -0.4,0.7 -0.7,1 -0.3,0.3 -0.6,0.6 -1,0.9 -0.4,0.2 -0.8,0.4 -1.3,0.5 C 22,19.9 21.5,20 21,20 z m 3.6,-6.1 c -0.1,-0.5 -0.2,-1 -0.4,-1.4 -0.2,-0.4 -0.5,-0.8 -0.8,-1.1 -0.3,-0.3 -0.7,-0.5 -1.1,-0.6 -0.4,-0.2 -0.8,-0.3 -1.3,-0.3 -0.5,0 -0.9,0.1 -1.3,0.3 -0.4,0.1 -0.8,0.3 -1.1,0.7 -0.3,0.3 -0.6,0.6 -0.8,1 -0.2,0.4 -0.3,0.9 -0.3,1.4 l 7.1,0 z m 3.5,5.9 0,-10.4 1.8,0 0,10.4 -1.8,0 z m 0,-12.4 0,-2.2 1.8,0 0,2.2 -1.8,0 z m 13.6,12.4 -1.7,0 0,-5.8 c 0,-1.2 -0.2,-2 -0.5,-2.5 -0.4,-0.5 -0.9,-0.7 -1.6,-0.7 -0.4,0 -0.7,0 -1.1,0.2 -0.3,0.1 -0.7,0.3 -1,0.5 -0.3,0.3 -0.6,0.6 -0.8,0.9 -0.3,0.3 -0.5,0.7 -0.6,1.1 l 0,6.3 -1.7,0 0,-10.4 1.6,0 0,2.2 c 0.4,-0.7 1,-1.3 1.8,-1.8 0.7,-0.4 1.6,-0.6 2.5,-0.6 0.6,0 1.1,0.1 1.5,0.3 0.4,0.2 0.7,0.5 1,0.9 0.2,0.4 0.4,0.9 0.5,1.4 0.1,0.6 0.1,1.1 0.1,1.8 l 0,6.2 z M 49,20 c -0.7,0 -1.5,-0.1 -2.1,-0.4 -0.7,-0.3 -1.2,-0.7 -1.7,-1.2 -0.5,-0.5 -0.8,-1.1 -1.1,-1.7 -0.3,-0.7 -0.4,-1.4 -0.4,-2.1 0,-0.8 0.1,-1.4 0.4,-2.1 0.3,-0.7 0.6,-1.2 1.1,-1.7 0.5,-0.5 1,-0.9 1.7,-1.2 0.7,-0.3 1.4,-0.4 2.2,-0.4 0.7,0 1.5,0.1 2.1,0.4 0.7,0.3 1.2,0.7 1.7,1.2 0.4,0.5 0.8,1 1,1.7 0.3,0.6 0.4,1.3 0.4,2 0,0.1 0,0.3 0,0.4 0,0.1 0,0.2 -0.1,0.3 l -8.6,0 c 0,0.5 0.1,1 0.3,1.4 0.2,0.4 0.5,0.8 0.8,1.1 0.3,0.3 0.7,0.5 1.1,0.7 0.4,0.2 0.8,0.3 1.3,0.3 0.3,0 0.6,-0.1 0.9,-0.1 0.3,-0.1 0.6,-0.3 0.9,-0.4 0.3,-0.1 0.5,-0.3 0.7,-0.5 0.2,-0.3 0.4,-0.5 0.5,-0.8 l 1.5,0.5 c -0.2,0.3 -0.4,0.7 -0.7,1 -0.3,0.3 -0.7,0.6 -1,0.9 -0.4,0.2 -0.9,0.4 -1.4,0.5 C 50.1,19.9 49.6,20 49,20 z m 3.6,-6.1 c 0,-0.5 -0.1,-1 -0.3,-1.4 -0.3,-0.4 -0.5,-0.8 -0.8,-1.1 -0.3,-0.3 -0.7,-0.5 -1.1,-0.6 -0.4,-0.2 -0.9,-0.3 -1.3,-0.3 -0.5,0 -0.9,0.1 -1.4,0.3 -0.4,0.1 -0.7,0.3 -1,0.7 -0.4,0.3 -0.6,0.6 -0.8,1 -0.2,0.4 -0.3,0.9 -0.4,1.4 l 7.1,0 z m 2.2,5.9 5.8,-14.2 1.5,0 5.8,14.2 -1.9,0 -1.7,-4.2 -6,0 -1.6,4.2 -1.9,0 z m 6.5,-12.1 -2.6,6.5 5.2,0 -2.6,-6.5 z m 17.2,12.1 -1.7,0 0,-5.8 c 0,-1.2 -0.2,-2 -0.5,-2.5 -0.4,-0.5 -0.9,-0.7 -1.6,-0.7 -0.3,0 -0.7,0 -1.1,0.2 -0.3,0.1 -0.7,0.3 -1,0.5 -0.3,0.3 -0.6,0.6 -0.8,0.9 -0.3,0.3 -0.4,0.7 -0.6,1.1 l 0,6.3 -1.7,0 0,-10.4 1.6,0 0,2.2 c 0.4,-0.7 1,-1.3 1.8,-1.8 0.8,-0.4 1.6,-0.6 2.5,-0.6 0.6,0 1.1,0.1 1.5,0.3 0.4,0.2 0.7,0.5 1,0.9 0.2,0.4 0.4,0.9 0.5,1.4 0.1,0.6 0.1,1.1 0.1,1.8 l 0,6.2 z m 3.3,0 0,-7.8 -1.4,0 0,-1.4 1.4,0 0,-1.5 c 0,-1.3 0.3,-2.3 0.9,-3 C 83.2,5.4 84,5 85,5 c 0.4,0 0.8,0.1 1.2,0.2 0.4,0.1 0.8,0.2 1.1,0.4 L 86.9,6.9 C 86.7,6.8 86.4,6.7 86.2,6.6 85.9,6.5 85.6,6.5 85.4,6.5 c -0.6,0 -1.1,0.2 -1.4,0.7 -0.3,0.4 -0.4,1 -0.4,1.9 l 0,1.5 2.7,0 0,1.4 -2.7,0 0,7.8 -1.8,0 z m 12,-8.9 c -0.8,0 -1.6,0.3 -2.3,0.7 -0.7,0.4 -1.1,1 -1.4,1.8 l 0,6.4 -1.8,0 0,-10.4 1.7,0 0,2.4 C 90.3,11.1 90.8,10.5 91.4,10 92,9.5 92.6,9.3 93.3,9.3 l 0.3,0 c 0.1,0 0.2,0 0.2,0 l 0,1.6 z m 4.4,9.1 c -0.5,0 -1,-0.1 -1.4,-0.2 -0.5,-0.2 -0.9,-0.4 -1.2,-0.7 -0.3,-0.3 -0.5,-0.7 -0.7,-1 -0.2,-0.4 -0.3,-0.9 -0.3,-1.3 0,-0.5 0.1,-0.9 0.3,-1.3 0.2,-0.5 0.5,-0.8 0.9,-1.1 0.4,-0.3 0.9,-0.5 1.4,-0.6 0.6,-0.2 1.2,-0.3 1.8,-0.3 0.5,0 1,0.1 1.5,0.2 0.6,0.1 1,0.2 1.4,0.3 l 0,-0.8 c 0,-0.9 -0.2,-1.5 -0.7,-2 -0.5,-0.5 -1.2,-0.7 -2,-0.7 -1.1,0 -2.2,0.4 -3.4,1.2 l -0.5,-1.2 c 0.6,-0.4 1.3,-0.8 2,-1 0.6,-0.2 1.3,-0.3 2.1,-0.3 1.3,0 2.3,0.3 3.1,1.1 0.8,0.7 1.2,1.7 1.2,3.1 l 0,4.2 c 0,0.5 0.2,0.7 0.5,0.7 l 0,1.5 c -0.1,0 -0.2,0 -0.3,0.1 -0.2,0 -0.3,0 -0.4,0 -0.3,0 -0.6,-0.1 -0.8,-0.3 -0.3,-0.1 -0.5,-0.4 -0.5,-0.8 l 0,-0.7 c -0.3,0.3 -0.6,0.6 -0.9,0.8 -0.3,0.3 -0.6,0.5 -0.9,0.6 -0.4,0.2 -0.7,0.3 -1.1,0.4 C 98.9,20 98.6,20 98.2,20 z m 0.4,-1.3 c 0.6,0 1.1,-0.1 1.7,-0.4 0.5,-0.2 0.9,-0.5 1.2,-0.9 0.3,-0.3 0.4,-0.5 0.4,-0.8 l 0,-1.5 c -0.4,-0.2 -0.8,-0.3 -1.3,-0.4 -0.5,-0.1 -0.9,-0.1 -1.3,-0.1 -0.9,0 -1.7,0.2 -2.2,0.5 -0.5,0.4 -0.8,0.9 -0.8,1.5 0,0.3 0,0.6 0.1,0.8 0.1,0.3 0.3,0.5 0.5,0.7 0.2,0.1 0.4,0.3 0.7,0.4 0.3,0.1 0.7,0.2 1,0.2 z" style="fill:#ffffff" />
    <path d="m 107.6,19.4 c 0,-0.7 0.1,-1.3 0.4,-1.9 0.2,-0.5 0.7,-1 1.3,-1.3 0.2,-0.2 0.5,-0.4 0.8,-0.5 0.3,-0.2 0.6,-0.4 0.9,-0.7 0.3,-0.2 0.5,-0.5 0.7,-0.8 0.2,-0.3 0.3,-0.7 0.3,-1.2 0,-0.3 -0.1,-0.7 -0.2,-1 -0.2,-0.2 -0.3,-0.5 -0.6,-0.7 -0.2,-0.2 -0.4,-0.3 -0.7,-0.4 -0.3,-0.1 -0.6,-0.2 -1,-0.2 -0.3,0 -0.6,0.1 -0.9,0.2 -0.3,0.1 -0.6,0.2 -0.8,0.4 -0.3,0.2 -0.5,0.4 -0.7,0.6 -0.2,0.2 -0.4,0.5 -0.5,0.7 l -1.2,-0.7 c 0.2,-0.5 0.4,-0.8 0.7,-1.1 0.3,-0.4 0.6,-0.6 1,-0.9 0.4,-0.2 0.8,-0.3 1.2,-0.5 0.4,-0.1 0.8,-0.1 1.3,-0.1 0.5,0 1,0 1.4,0.2 0.5,0.2 0.9,0.4 1.3,0.7 0.4,0.3 0.7,0.7 0.9,1.2 0.2,0.5 0.4,1.1 0.4,1.7 0,0.5 -0.1,1 -0.3,1.3 -0.1,0.4 -0.3,0.7 -0.5,1 -0.2,0.2 -0.5,0.5 -0.8,0.7 -0.3,0.2 -0.6,0.3 -1,0.5 -0.2,0.2 -0.4,0.3 -0.7,0.5 -0.2,0.1 -0.4,0.3 -0.6,0.5 -0.2,0.2 -0.3,0.4 -0.5,0.7 -0.1,0.3 -0.1,0.7 -0.1,1.1 l -1.5,0 z m 0,4.3 0,-2.4 1.5,0 0,2.4 -1.5,0 z" transform="matrix(0.9781476,0.20791169,-0.20791169,0.9781476,5.8235556,-22.482937)" style="fill:#ffffff" />
    <path d="m 121.3,19.8 c -0.8,0 -1.5,-0.1 -2.1,-0.4 -0.7,-0.3 -1.3,-0.7 -1.7,-1.2 -0.5,-0.5 -0.8,-1 -1.1,-1.7 -0.3,-0.7 -0.4,-1.4 -0.4,-2.1 0,-0.7 0.1,-1.4 0.4,-2.1 0.3,-0.6 0.6,-1.2 1.1,-1.7 0.5,-0.5 1,-0.9 1.7,-1.2 0.6,-0.3 1.4,-0.4 2.1,-0.4 0.8,0 1.5,0.1 2.2,0.4 0.6,0.3 1.2,0.7 1.6,1.2 0.5,0.5 0.8,1.1 1.1,1.7 0.2,0.7 0.4,1.3 0.4,2 0,0.2 0,0.3 0,0.4 -0.1,0.1 -0.1,0.2 -0.1,0.3 l -8.6,0 c 0,0.5 0.1,1 0.3,1.4 0.2,0.4 0.5,0.8 0.8,1.1 0.3,0.3 0.7,0.6 1.1,0.7 0.4,0.2 0.8,0.3 1.3,0.3 0.3,0 0.6,0 0.9,-0.1 0.3,-0.1 0.6,-0.2 0.9,-0.4 0.2,-0.1 0.5,-0.3 0.7,-0.5 0.2,-0.2 0.4,-0.5 0.5,-0.7 l 1.5,0.4 c -0.2,0.4 -0.4,0.7 -0.7,1 -0.3,0.4 -0.7,0.6 -1.1,0.9 -0.4,0.2 -0.8,0.4 -1.3,0.5 -0.5,0.2 -1,0.2 -1.5,0.2 z m 3.6,-6.1 c 0,-0.5 -0.2,-0.9 -0.4,-1.4 -0.2,-0.4 -0.4,-0.7 -0.7,-1 -0.4,-0.3 -0.7,-0.6 -1.1,-0.7 -0.5,-0.2 -0.9,-0.3 -1.4,-0.3 -0.4,0 -0.9,0.1 -1.3,0.3 -0.4,0.1 -0.8,0.4 -1.1,0.7 -0.3,0.3 -0.5,0.6 -0.7,1 -0.2,0.5 -0.3,0.9 -0.4,1.4 l 7.1,0 z m 12.6,5.9 -1.7,0 0,-5.8 c 0,-1.1 -0.2,-2 -0.5,-2.5 -0.4,-0.5 -0.9,-0.7 -1.6,-0.7 -0.3,0 -0.7,0 -1.1,0.2 -0.3,0.1 -0.7,0.3 -1,0.6 -0.3,0.2 -0.6,0.5 -0.8,0.8 -0.3,0.4 -0.4,0.7 -0.6,1.1 l 0,6.3 -1.7,0 0,-10.4 1.6,0 0,2.2 c 0.4,-0.7 1,-1.3 1.8,-1.7 0.8,-0.5 1.6,-0.7 2.5,-0.7 0.6,0 1.1,0.1 1.5,0.3 0.4,0.3 0.7,0.6 1,1 0.2,0.3 0.4,0.8 0.5,1.3 0.1,0.6 0.1,1.2 0.1,1.8 l 0,6.2 z m 2.6,0 0,-2.2 1.5,0 0,2.2 -1.5,0 z" style="fill:#ffffff" />
  </g>
</svg>