<?xml version="1.0" encoding="UTF-8" standalone="no"?>
<svg xmlns="http://www.w3.org/2000/svg" width="143" height="24" viewBox="0 0 143 24" version="1.1">
  <g stroke="none" stroke-width="1" fill="none" fill-rule="evenodd">
    <path d="M7.4 19.8L3.8 14.7 1.8 16.6 1.8 19.8 0 19.8 0 5.2 1.8 5.2 1.8 14.8 7.1 9.4 9.1 9.4 4.9 13.7 9.3 19.8 7.4 19.8ZM10.8 5.2L12.5 5.2 12.5 17.1C12.5 17.5 12.6 17.8 12.8 18 13 18.2 13.3 18.3 13.7 18.3 13.8 18.3 14 18.3 14.2 18.3 14.4 18.2 14.6 18.2 14.8 18.1L15.1 19.5C14.8 19.6 14.4 19.7 14 19.8 13.6 19.9 13.3 19.9 13 19.9 12.3 19.9 11.7 19.7 11.4 19.4 11 19 10.8 18.4 10.8 17.7L10.8 5.2ZM21 20C20.2 20 19.5 19.9 18.8 19.6 18.2 19.3 17.6 18.9 17.1 18.4 16.7 17.9 16.3 17.3 16.1 16.7 15.8 16 15.7 15.3 15.7 14.6 15.7 13.8 15.8 13.2 16.1 12.5 16.3 11.8 16.7 11.3 17.2 10.8 17.6 10.3 18.2 9.9 18.8 9.6 19.5 9.3 20.2 9.2 21 9.2 21.8 9.2 22.5 9.3 23.2 9.6 23.8 9.9 24.3 10.3 24.8 10.8 25.3 11.3 25.6 11.8 25.9 12.5 26.1 13.1 26.2 13.8 26.2 14.5 26.2 14.6 26.2 14.8 26.2 14.9 26.2 15 26.2 15.1 26.2 15.2L17.5 15.2C17.6 15.7 17.7 16.2 17.9 16.6 18.1 17 18.3 17.4 18.7 17.7 19 18 19.3 18.2 19.8 18.4 20.2 18.6 20.6 18.7 21 18.7 21.4 18.7 21.7 18.6 22 18.6 22.3 18.5 22.6 18.3 22.8 18.2 23.1 18.1 23.3 17.9 23.6 17.7 23.8 17.4 23.9 17.2 24 16.9L25.5 17.4C25.4 17.7 25.1 18.1 24.8 18.4 24.5 18.7 24.2 19 23.8 19.3 23.4 19.5 23 19.7 22.5 19.8 22 19.9 21.5 20 21 20ZM24.6 13.9C24.5 13.4 24.4 12.9 24.2 12.5 24 12.1 23.7 11.7 23.4 11.4 23.1 11.1 22.7 10.9 22.3 10.8 21.9 10.6 21.5 10.5 21 10.5 20.5 10.5 20.1 10.6 19.7 10.8 19.3 10.9 18.9 11.1 18.6 11.5 18.3 11.8 18 12.1 17.8 12.5 17.6 12.9 17.5 13.4 17.5 13.9L24.6 13.9ZM28.1 19.8L28.1 9.4 29.9 9.4 29.9 19.8 28.1 19.8ZM28.1 7.4L28.1 5.2 29.9 5.2 29.9 7.4 28.1 7.4ZM41.7 19.8L40 19.8 40 14C40 12.8 39.8 12 39.5 11.5 39.1 11 38.6 10.8 37.9 10.8 37.5 10.8 37.2 10.8 36.8 11 36.5 11.1 36.1 11.3 35.8 11.5 35.5 11.8 35.2 12.1 35 12.4 34.7 12.7 34.5 13.1 34.4 13.5L34.4 19.8 32.7 19.8 32.7 9.4 34.3 9.4 34.3 11.6C34.7 10.9 35.3 10.3 36.1 9.8 36.8 9.4 37.7 9.2 38.6 9.2 39.2 9.2 39.7 9.3 40.1 9.5 40.5 9.7 40.8 10 41.1 10.4 41.3 10.8 41.5 11.3 41.6 11.8 41.7 12.4 41.7 12.9 41.7 13.6L41.7 19.8ZM49 20C48.3 20 47.5 19.9 46.9 19.6 46.2 19.3 45.7 18.9 45.2 18.4 44.7 17.9 44.4 17.3 44.1 16.7 43.8 16 43.7 15.3 43.7 14.6 43.7 13.8 43.8 13.2 44.1 12.5 44.4 11.8 44.7 11.3 45.2 10.8 45.7 10.3 46.2 9.9 46.9 9.6 47.6 9.3 48.3 9.2 49.1 9.2 49.8 9.2 50.6 9.3 51.2 9.6 51.9 9.9 52.4 10.3 52.9 10.8 53.3 11.3 53.7 11.8 53.9 12.5 54.2 13.1 54.3 13.8 54.3 14.5 54.3 14.6 54.3 14.8 54.3 14.9 54.3 15 54.3 15.1 54.2 15.2L45.6 15.2C45.6 15.7 45.7 16.2 45.9 16.6 46.1 17 46.4 17.4 46.7 17.7 47 18 47.4 18.2 47.8 18.4 48.2 18.6 48.6 18.7 49.1 18.7 49.4 18.7 49.7 18.6 50 18.6 50.3 18.5 50.6 18.3 50.9 18.2 51.2 18.1 51.4 17.9 51.6 17.7 51.8 17.4 52 17.2 52.1 16.9L53.6 17.4C53.4 17.7 53.2 18.1 52.9 18.4 52.6 18.7 52.2 19 51.9 19.3 51.5 19.5 51 19.7 50.5 19.8 50.1 19.9 49.6 20 49 20ZM52.6 13.9C52.6 13.4 52.5 12.9 52.3 12.5 52 12.1 51.8 11.7 51.5 11.4 51.2 11.1 50.8 10.9 50.4 10.8 50 10.6 49.5 10.5 49.1 10.5 48.6 10.5 48.2 10.6 47.7 10.8 47.3 10.9 47 11.1 46.7 11.5 46.3 11.8 46.1 12.1 45.9 12.5 45.7 12.9 45.6 13.4 45.5 13.9L52.6 13.9ZM54.8 19.8L60.6 5.6 62.1 5.6 67.9 19.8 66 19.8 64.3 15.6 58.3 15.6 56.7 19.8 54.8 19.8ZM61.3 7.7L58.7 14.2 63.9 14.2 61.3 7.7ZM78.5 19.8L76.8 19.8 76.8 14C76.8 12.8 76.6 12 76.3 11.5 75.9 11 75.4 10.8 74.7 10.8 74.4 10.8 74 10.8 73.6 11 73.3 11.1 72.9 11.3 72.6 11.5 72.3 11.8 72 12.1 71.8 12.4 71.5 12.7 71.4 13.1 71.2 13.5L71.2 19.8 69.5 19.8 69.5 9.4 71.1 9.4 71.1 11.6C71.5 10.9 72.1 10.3 72.9 9.8 73.7 9.4 74.5 9.2 75.4 9.2 76 9.2 76.5 9.3 76.9 9.5 77.3 9.7 77.6 10 77.9 10.4 78.1 10.8 78.3 11.3 78.4 11.8 78.5 12.4 78.5 12.9 78.5 13.6L78.5 19.8ZM81.8 19.8L81.8 12 80.4 12 80.4 10.6 81.8 10.6 81.8 9.1C81.8 7.8 82.1 6.8 82.7 6.1 83.2 5.4 84 5 85 5 85.4 5 85.8 5.1 86.2 5.2 86.6 5.3 87 5.4 87.3 5.6L86.9 6.9C86.7 6.8 86.4 6.7 86.2 6.6 85.9 6.5 85.6 6.5 85.4 6.5 84.8 6.5 84.3 6.7 84 7.2 83.7 7.6 83.6 8.2 83.6 9.1L83.6 10.6 86.3 10.6 86.3 12 83.6 12 83.6 19.8 81.8 19.8ZM93.8 10.9C93 10.9 92.2 11.2 91.5 11.6 90.8 12 90.4 12.6 90.1 13.4L90.1 19.8 88.3 19.8 88.3 9.4 90 9.4 90 11.8C90.3 11.1 90.8 10.5 91.4 10 92 9.5 92.6 9.3 93.3 9.3L93.6 9.3C93.7 9.3 93.8 9.3 93.8 9.3L93.8 10.9ZM98.2 20C97.7 20 97.2 19.9 96.8 19.8 96.3 19.6 95.9 19.4 95.6 19.1 95.3 18.8 95.1 18.4 94.9 18.1 94.7 17.7 94.6 17.2 94.6 16.8 94.6 16.3 94.7 15.9 94.9 15.5 95.1 15 95.4 14.7 95.8 14.4 96.2 14.1 96.7 13.9 97.2 13.8 97.8 13.6 98.4 13.5 99 13.5 99.5 13.5 100 13.6 100.5 13.7 101.1 13.8 101.5 13.9 101.9 14L101.9 13.2C101.9 12.3 101.7 11.7 101.2 11.2 100.7 10.7 100 10.5 99.2 10.5 98.1 10.5 97 10.9 95.8 11.7L95.3 10.5C95.9 10.1 96.6 9.7 97.3 9.5 97.9 9.3 98.6 9.2 99.4 9.2 100.7 9.2 101.7 9.5 102.5 10.3 103.3 11 103.7 12 103.7 13.4L103.7 17.6C103.7 18.1 103.9 18.3 104.2 18.3L104.2 19.8C104.1 19.8 104 19.8 103.9 19.9 103.7 19.9 103.6 19.9 103.5 19.9 103.2 19.9 102.9 19.8 102.7 19.6 102.4 19.5 102.2 19.2 102.2 18.8L102.2 18.1C101.9 18.4 101.6 18.7 101.3 18.9 101 19.2 100.7 19.4 100.4 19.5 100 19.7 99.7 19.8 99.3 19.9 98.9 20 98.6 20 98.2 20ZM98.6 18.7C99.2 18.7 99.7 18.6 100.3 18.3 100.8 18.1 101.2 17.8 101.5 17.4 101.8 17.1 101.9 16.9 101.9 16.6L101.9 15.1C101.5 14.9 101.1 14.8 100.6 14.7 100.1 14.6 99.7 14.6 99.3 14.6 98.4 14.6 97.6 14.8 97.1 15.1 96.6 15.5 96.3 16 96.3 16.6 96.3 16.9 96.3 17.2 96.4 17.4 96.5 17.7 96.7 17.9 96.9 18.1 97.1 18.2 97.3 18.4 97.6 18.5 97.9 18.6 98.3 18.7 98.6 18.7Z" fill="#2980B9"/>
    <path d="M107.6 19.4C107.6 18.7 107.7 18.1 108 17.5 108.2 17 108.7 16.5 109.3 16.2 109.5 16 109.8 15.8 110.1 15.7 110.4 15.5 110.7 15.3 111 15 111.3 14.8 111.5 14.5 111.7 14.2 111.9 13.9 112 13.5 112 13 112 12.7 111.9 12.3 111.8 12 111.6 11.8 111.5 11.5 111.2 11.3 111 11.1 110.8 11 110.5 10.9 110.2 10.8 109.9 10.7 109.5 10.7 109.2 10.7 108.9 10.8 108.6 10.9 108.3 11 108 11.1 107.8 11.3 107.5 11.5 107.3 11.7 107.1 11.9 106.9 12.1 106.7 12.4 106.6 12.6L105.4 11.9C105.6 11.4 105.8 11.1 106.1 10.8 106.4 10.4 106.7 10.2 107.1 9.9 107.5 9.7 107.9 9.6 108.3 9.4 108.7 9.3 109.1 9.3 109.6 9.3 110.1 9.3 110.6 9.3 111 9.5 111.5 9.7 111.9 9.9 112.3 10.2 112.7 10.5 113 10.9 113.2 11.4 113.4 11.9 113.6 12.5 113.6 13.1 113.6 13.6 113.5 14.1 113.3 14.4 113.2 14.8 113 15.1 112.8 15.4 112.6 15.6 112.3 15.9 112 16.1 111.7 16.3 111.4 16.4 111 16.6 110.8 16.8 110.6 16.9 110.3 17.1 110.1 17.2 109.9 17.4 109.7 17.6 109.5 17.8 109.4 18 109.2 18.3 109.1 18.6 109.1 19 109.1 19.4L107.6 19.4ZM107.6 23.7L107.6 21.3 109.1 21.3 109.1 23.7 107.6 23.7Z" fill="#757F9A" transform="translate(109.867205, 16.462247) rotate(12.000000) translate(-109.867205, -16.462247) "/>
    <path d="M121.3 19.8C120.5 19.8 119.8 19.7 119.2 19.4 118.5 19.1 117.9 18.7 117.5 18.2 117 17.7 116.7 17.2 116.4 16.5 116.1 15.8 116 15.1 116 14.4 116 13.7 116.1 13 116.4 12.3 116.7 11.7 117 11.1 117.5 10.6 118 10.1 118.5 9.7 119.2 9.4 119.8 9.1 120.6 9 121.3 9 122.1 9 122.8 9.1 123.5 9.4 124.1 9.7 124.7 10.1 125.1 10.6 125.6 11.1 125.9 11.7 126.2 12.3 126.4 13 126.6 13.6 126.6 14.3 126.6 14.5 126.6 14.6 126.6 14.7 126.5 14.8 126.5 14.9 126.5 15L117.9 15C117.9 15.5 118 16 118.2 16.4 118.4 16.8 118.7 17.2 119 17.5 119.3 17.8 119.7 18.1 120.1 18.2 120.5 18.4 120.9 18.5 121.4 18.5 121.7 18.5 122 18.5 122.3 18.4 122.6 18.3 122.9 18.2 123.2 18 123.4 17.9 123.7 17.7 123.9 17.5 124.1 17.3 124.3 17 124.4 16.8L125.9 17.2C125.7 17.6 125.5 17.9 125.2 18.2 124.9 18.6 124.5 18.8 124.1 19.1 123.7 19.3 123.3 19.5 122.8 19.6 122.3 19.8 121.8 19.8 121.3 19.8ZM124.9 13.7C124.9 13.2 124.7 12.8 124.5 12.3 124.3 11.9 124.1 11.6 123.8 11.3 123.4 11 123.1 10.7 122.7 10.6 122.2 10.4 121.8 10.3 121.3 10.3 120.9 10.3 120.4 10.4 120 10.6 119.6 10.7 119.2 11 118.9 11.3 118.6 11.6 118.4 11.9 118.2 12.3 118 12.8 117.9 13.2 117.8 13.7L124.9 13.7ZM137.5 19.6L135.8 19.6 135.8 13.8C135.8 12.7 135.6 11.8 135.3 11.3 134.9 10.8 134.4 10.6 133.7 10.6 133.4 10.6 133 10.6 132.6 10.8 132.3 10.9 131.9 11.1 131.6 11.4 131.3 11.6 131 11.9 130.8 12.2 130.5 12.6 130.4 12.9 130.2 13.3L130.2 19.6 128.5 19.6 128.5 9.2 130.1 9.2 130.1 11.4C130.5 10.7 131.1 10.1 131.9 9.7 132.7 9.2 133.5 9 134.4 9 135 9 135.5 9.1 135.9 9.3 136.3 9.6 136.6 9.9 136.9 10.3 137.1 10.6 137.3 11.1 137.4 11.6 137.5 12.2 137.5 12.8 137.5 13.4L137.5 19.6ZM140.1 19.6L140.1 17.4 141.6 17.4 141.6 19.6 140.1 19.6Z" fill="#2980B9"/>
  </g>
</svg>